<svg xmlns="http://www.w3.org/2000/svg" version="1.1" xmlns:xlink="http://www.w3.org/1999/xlink" xmlns:svgjs="http://svgjs.dev/svgjs" width="1500" height="1500" viewBox="0 0 1500 1500"><rect width="1500" height="1500" fill="#ffffff"></rect><g transform="matrix(0.6666666666666666,0,0,0.6666666666666666,249.85778443113782,249.85778443113765)"><svg viewBox="0 0 334 334" data-background-color="#ffffff" preserveAspectRatio="xMidYMid meet" height="1500" width="1500" xmlns="http://www.w3.org/2000/svg" xmlns:xlink="http://www.w3.org/1999/xlink"><g id="tight-bounds" transform="matrix(1,0,0,1,0.04749999999998522,0.04750000000001364)"><svg viewBox="0 0 333.90454557049503 333.90454557049503" height="333.90454557049503" width="333.90454557049503"><g><svg></svg></g><g><svg viewBox="0 0 333.90454557049503 333.90454557049503" height="333.90454557049503" width="333.90454557049503"><g><path d="M0 166.952c0-92.205 74.747-166.952 166.952-166.952 92.205 0 166.952 74.747 166.953 166.952 0 92.205-74.747 166.952-166.953 166.953-92.205 0-166.952-74.747-166.952-166.953zM166.952 331.317c90.776 0 164.365-73.589 164.365-164.365 0-90.776-73.589-164.365-164.365-164.365-90.776 0-164.365 73.589-164.365 164.365 0 90.776 73.589 164.365 164.365 164.365z" data-fill-palette-color="tertiary" fill="#8eb4e5" stroke="transparent"></path><ellipse rx="160.27418187383762" ry="160.27418187383762" cx="166.95227278524752" cy="166.95227278524752" fill="#8eb4e5" stroke="transparent" stroke-width="0" fill-opacity="1" data-fill-palette-color="tertiary"></ellipse></g><g transform="matrix(1,0,0,1,71.99698431997032,71.17305217166896)"><svg viewBox="0 0 189.91057693055438 191.55844122715712" height="191.55844122715712" width="189.91057693055438"><g><svg viewBox="0 0 189.91057693055438 191.55844122715712" height="191.55844122715712" width="189.91057693055438"><g><svg viewBox="0 0 227.4467451296661 229.42031277784787" height="191.55844122715712" width="189.91057693055438"><g transform="matrix(1,0,0,1,7.1441519512545,165.71205811701483)"><svg viewBox="0 0 213.1584412271571 63.70825466083303" height="63.70825466083303" width="213.1584412271571"><g id="textblocktransform"><svg viewBox="0 0 213.1584412271571 63.70825466083303" height="63.70825466083303" width="213.1584412271571" id="textblock"><g><svg viewBox="0 0 213.1584412271571 34.36118835518772" height="34.36118835518772" width="213.1584412271571"><g transform="matrix(1,0,0,1,0,0)"><svg width="213.1584412271571" viewBox="1.56 -37.96 305.91 49.31" height="34.36118835518772" data-palette-color="#ffffff"><path d="M27.47-33.89L35.08-35.94Q35.21-35.96 35.31-35.97 35.42-35.99 35.52-35.99L35.52-35.99Q35.96-35.99 36.23-35.71 36.5-35.42 36.6-34.72L36.6-34.72Q36.65-34.28 36.76-33.48 36.87-32.69 37-31.73 37.13-30.76 37.29-29.74 37.45-28.71 37.57-27.84 37.7-26.98 37.79-26.35 37.89-25.73 37.92-25.56L37.92-25.56Q38.45-21.24 38.87-18.63 39.28-16.02 39.45-14.77L39.45-14.77 41.09-1.56 40.84-0.81Q40.8-0.63 40.21-0.39 39.62-0.15 38.79 0.13 37.96 0.42 36.99 0.68 36.01 0.95 35.18 1.17 34.35 1.39 33.78 1.53 33.2 1.66 33.18 1.66L33.18 1.66Q32.59 1.66 32.25 0.81 31.91-0.05 31.69-1.37 31.47-2.69 31.34-4.25 31.2-5.81 31.03-7.25L31.03-7.25Q30.88-8.45 30.76-9.67 30.64-10.89 30.49-12.16L30.49-12.16 29.54-19.29 20.48-2.71Q20.07-2.12 19.65-1.87 19.24-1.61 18.87-1.61L18.87-1.61Q18.33-1.61 18.03-1.93 17.72-2.25 17.6-2.71L17.6-2.71Q17.14-4.25 16.81-5.31 16.48-6.37 16.2-7.25 15.92-8.13 15.67-8.96 15.43-9.79 15.12-10.88 14.82-11.96 14.44-13.44 14.06-14.92 13.53-17.07L13.53-17.07 12.77-13.55 9.25 1.37Q9.18 1.66 8.64 1.66L8.64 1.66Q8.13 1.66 7.24 1.46 6.35 1.27 5.38 0.99 4.42 0.71 3.5 0.4 2.59 0.1 2.05-0.15L2.05-0.15Q1.93-0.2 1.75-0.38 1.56-0.56 1.56-0.95L1.56-0.95Q1.56-1.05 1.64-1.37 1.71-1.68 1.82-2.11 1.93-2.54 2.06-2.98 2.2-3.42 2.32-3.76L2.32-3.76Q2.64-4.59 2.89-5.71 3.15-6.84 3.37-7.98 3.59-9.13 3.77-10.18 3.96-11.23 4.13-11.94L4.13-11.94 7.13-25.95 8.03-29.91Q8.2-30.66 8.36-31.38 8.52-32.1 8.64-32.69 8.76-33.28 8.84-33.64 8.91-34.01 8.91-34.06L8.91-34.06 15.01-35.94Q15.36-35.94 15.61-35.88 15.87-35.82 15.94-35.47L15.94-35.47 20.8-19.85 27.47-33.89ZM58.96-27.25L58.96-27.25Q61.28-27.25 63.17-26.38 65.06-25.51 66.42-24.13 67.77-22.75 68.5-21.04 69.24-19.34 69.24-17.63L69.24-17.63Q69.24-16.11 68.31-14.59 67.38-13.06 65.71-11.84 64.04-10.62 61.69-9.86 59.35-9.11 56.54-9.11L56.54-9.11Q55.08-9.11 53.46-9.4L53.46-9.4Q53.56-8.35 54.07-7.59 54.59-6.84 55.37-6.35 56.15-5.86 57.14-5.63 58.13-5.4 59.18-5.4L59.18-5.4Q60.35-5.4 61.44-5.6 62.52-5.81 63.52-6.15 64.52-6.49 65.45-6.91 66.38-7.32 67.21-7.74L67.21-7.74Q67.43-7.79 67.59-7.82 67.75-7.86 67.89-7.86L67.89-7.86Q67.89-7.86 67.88-7.47 67.87-7.08 67.87-6.37 67.87-5.66 67.86-4.66 67.84-3.66 67.82-2.44L67.82-2.44Q67.89-2.32 67.92-2.2 67.94-2.08 67.94-2L67.94-2Q67.94-1.71 67.4-1.37 66.87-1.03 66-0.66 65.13-0.29 64.02 0.05 62.91 0.39 61.77 0.67 60.62 0.95 59.54 1.11 58.47 1.27 57.66 1.27L57.66 1.27Q55.03 1.27 52.55 0.35 50.07-0.56 48.15-2.27 46.24-3.98 45.09-6.42 43.94-8.86 43.94-11.91L43.94-11.91Q43.94-15.11 45.04-17.91 46.14-20.7 48.13-22.78 50.12-24.85 52.88-26.05 55.64-27.25 58.96-27.25ZM58.66-20.75L58.66-20.75Q57.66-20.75 56.82-20.32 55.98-19.9 55.28-19.1 54.59-18.31 54.07-17.2 53.56-16.09 53.24-14.75L53.24-14.75Q55.76-15.19 57.42-15.67 59.08-16.16 60.08-16.66 61.08-17.16 61.5-17.66 61.91-18.16 61.91-18.63L61.91-18.63Q61.91-19.07 61.58-19.46 61.25-19.85 60.76-20.14 60.28-20.43 59.7-20.59 59.13-20.75 58.66-20.75ZM73.97-20.65L73.97-20.65Q74.26-24 74.45-27.27 74.63-30.54 74.85-33.98L74.85-33.98Q74.9-34.79 75.01-35.1 75.12-35.4 75.56-35.5L75.56-35.5Q77.83-35.91 80.11-36.34 82.39-36.77 84.69-37.48L84.69-37.48Q84.76-37.5 84.91-37.5L84.91-37.5Q85.18-37.5 85.18-37.26L85.18-37.26 82-2.39 82-1.98Q82-1.76 81.83-1.62 81.66-1.49 81.03-1.32L81.03-1.32 74.63 1.03Q74.36 1.15 73.92 1.28 73.48 1.42 73.07 1.42L73.07 1.42Q72.72 1.42 72.47 1.25 72.21 1.07 72.21 0.66L72.21 0.66 72.21 0.51Q72.41-1.95 72.59-4.31 72.77-6.67 72.98-9.18 73.19-11.69 73.43-14.5 73.68-17.31 73.97-20.65ZM89.15-20.65L89.15-20.65Q89.45-24 89.63-27.27 89.81-30.54 90.03-33.98L90.03-33.98Q90.08-34.79 90.19-35.1 90.3-35.4 90.74-35.5L90.74-35.5Q93.01-35.91 95.29-36.34 97.58-36.77 99.87-37.48L99.87-37.48Q99.94-37.5 100.09-37.5L100.09-37.5Q100.36-37.5 100.36-37.26L100.36-37.26 97.18-2.39 97.18-1.98Q97.18-1.76 97.01-1.62 96.84-1.49 96.21-1.32L96.21-1.32 89.81 1.03Q89.54 1.15 89.1 1.28 88.66 1.42 88.25 1.42L88.25 1.42Q87.91 1.42 87.65 1.25 87.39 1.07 87.39 0.66L87.39 0.66 87.39 0.51Q87.59-1.95 87.77-4.31 87.96-6.67 88.16-9.18 88.37-11.69 88.62-14.5 88.86-17.31 89.15-20.65ZM113.76-17.43L112.95-7.96Q113.2-7.47 113.65-6.97 114.1-6.47 114.7-6.05 115.3-5.64 116.01-5.38 116.71-5.13 117.47-5.13L117.47-5.13Q118.52-5.13 119.45-5.94 120.38-6.76 121.07-8.14 121.77-9.52 122.16-11.29 122.55-13.06 122.55-14.97L122.55-14.97Q122.55-16.14 122.34-17.19 122.13-18.24 121.69-19.02 121.25-19.8 120.56-20.26 119.86-20.73 118.89-20.73L118.89-20.73Q117.3-20.73 115.98-19.8 114.66-18.87 113.76-17.43L113.76-17.43ZM103.87 1.2L103.87 1.2Q103.53 1.27 103.33 1.27L103.33 1.27Q102.55 1.27 102.55 0.34L102.55 0.34Q102.55 0.22 102.57 0.1 102.58-0.02 102.6-0.17L102.6-0.17 105.43-34.72Q105.43-34.79 105.45-34.86 105.46-34.94 105.46-34.99L105.46-34.99Q105.46-35.08 105.45-35.16 105.43-35.23 105.43-35.28L105.43-35.28Q105.43-35.5 105.59-35.63 105.75-35.77 106.41-35.94L106.41-35.94 113.27-37.57Q113.54-37.62 113.98-37.79 114.42-37.96 114.83-37.96L114.83-37.96Q115.15-37.96 115.43-37.82 115.71-37.67 115.71-37.26L115.71-37.26Q115.71-37.21 115.7-37.16 115.69-37.11 115.69-37.06L115.69-37.06Q115.66-36.94 115.57-35.99 115.47-35.03 115.35-33.68 115.22-32.32 115.08-30.77 114.93-29.22 114.81-27.87 114.69-26.51 114.59-25.56 114.49-24.61 114.47-24.49L114.47-24.49Q116.25-25.66 118.15-26.45 120.06-27.25 121.96-27.25L121.96-27.25Q124.48-27.25 126.31-26.21 128.14-25.17 129.34-23.45 130.53-21.73 131.11-19.48 131.68-17.24 131.68-14.84L131.68-14.84Q131.68-12.92 131.33-10.97 130.97-9.03 130.3-7.25 129.63-5.47 128.62-3.91 127.6-2.34 126.3-1.2 124.99-0.05 123.38 0.61 121.77 1.27 119.89 1.27L119.89 1.27Q117.62 1.27 115.74 0.27 113.86-0.73 112.25-2.32L112.25-2.32Q112.2-1.73 112.17-1.39 112.15-1.05 112.01-0.87 111.88-0.68 111.61-0.57 111.34-0.46 110.81-0.34L110.81-0.34Q110.54-0.27 109.87-0.11 109.19 0.05 108.25 0.26 107.31 0.46 106.18 0.71 105.04 0.95 103.87 1.2ZM148.28 1.27L148.28 1.27Q144.84 1.27 142.24 0.15 139.64-0.98 137.88-2.84 136.12-4.71 135.24-7.14 134.36-9.57 134.36-12.18L134.36-12.18Q134.36-14.79 135.22-17.15 136.07-19.51 137.61-21.37 139.15-23.24 141.3-24.5 143.44-25.76 146.03-26.2L146.03-26.2Q146.42-26.22 146.42-26.37L146.42-26.37Q146.42-26.64 146.36-26.87 146.3-27.1 146.3-27.27L146.3-27.27Q146.3-27.54 146.4-27.64 146.5-27.73 146.62-27.73L146.62-27.73Q151.28-27.73 154.55-26.67 157.82-25.61 159.88-23.78 161.93-21.95 162.85-19.46 163.78-16.97 163.78-14.11L163.78-14.11Q163.78-10.47 162.56-7.62 161.34-4.76 159.23-2.78 157.12-0.81 154.3 0.23 151.48 1.27 148.28 1.27ZM143.76-12.45L143.76-12.45Q143.76-11.13 144.04-9.84 144.32-8.54 144.97-7.5 145.62-6.45 146.67-5.8 147.72-5.15 149.28-5.15L149.28-5.15Q150.4-5.2 151.24-5.65 152.09-6.1 152.7-6.82 153.31-7.54 153.71-8.45 154.11-9.35 154.35-10.31 154.58-11.28 154.68-12.21 154.77-13.13 154.77-13.89L154.77-13.89Q154.77-15.16 154.39-16.38 154.02-17.6 153.28-18.53 152.55-19.46 151.46-20.03 150.38-20.61 148.96-20.61L148.96-20.61Q147.5-20.61 146.5-19.74 145.5-18.87 144.9-17.6 144.3-16.33 144.03-14.93 143.76-13.53 143.76-12.45ZM181.92-0.95L176.55 11.13Q176.5 11.23 176.44 11.29 176.38 11.35 176.23 11.35L176.23 11.35Q176.08 11.35 176.01 11.33L176.01 11.33Q175.13 11.01 174.35 10.79 173.57 10.57 172.8 10.39 172.03 10.21 171.23 10.05 170.42 9.89 169.52 9.69L169.52 9.69Q169.27 9.64 169.14 9.53 169 9.42 169 9.16L169 9.16Q169 9.08 169.09 8.8 169.17 8.52 169.52 7.65 169.86 6.79 170.57 5.14 171.27 3.49 172.52 0.71L172.52 0.71Q172.15-0.51 171.69-2.22 171.23-3.93 170.7-5.96 170.18-7.98 169.61-10.24 169.05-12.5 168.48-14.81 167.9-17.11 167.33-19.37 166.76-21.63 166.22-23.68L166.22-23.68Q166.05-24.07 166.03-24.33 166-24.58 166-24.76L166-24.76Q166-25.1 166.39-25.2L166.39-25.2Q168.3-25.61 170.35-26.06 172.4-26.51 174.23-27.22L174.23-27.22Q174.3-27.25 174.45-27.25L174.45-27.25Q174.77-27.25 174.79-27L174.79-27 177.77-10.6Q177.87-10.89 178.15-11.66 178.43-12.43 178.81-13.5 179.18-14.58 179.65-15.87 180.11-17.16 180.6-18.51 181.09-19.85 181.56-21.18 182.04-22.51 182.46-23.66 182.87-24.8 183.18-25.68 183.48-26.56 183.65-27L183.65-27Q183.75-27.25 184.02-27.25L184.02-27.25Q184.09-27.25 184.12-27.23 184.14-27.22 184.21-27.22L184.21-27.22Q186.04-26.51 187.97-26.06 189.9-25.61 191.81-25.2L191.81-25.2Q192.27-25.1 192.27-24.66L192.27-24.66Q192.27-24.34 191.98-23.68L191.98-23.68 181.92-0.95ZM196.64-0.32L196.64-0.32Q196.15-0.44 195.98-0.7 195.81-0.95 195.81-1.27L195.81-1.27Q195.81-1.34 195.82-1.37 195.83-1.39 195.83-1.46L195.83-1.46Q196.03-4.1 196.26-6.99 196.49-9.89 196.76-12.88 197.03-15.87 197.3-18.85 197.57-21.83 197.83-24.63L197.83-24.63 197.81-24.63Q197.71-24.63 197.26-24.48 196.81-24.32 196.23-24.13 195.66-23.95 195.08-23.8 194.49-23.66 194.12-23.66L194.12-23.66Q193.81-23.66 193.67-23.9 193.54-24.15 193.54-24.44L193.54-24.44Q193.54-24.66 193.61-24.85L193.61-24.85Q194.27-26.76 194.98-28.42 195.69-30.08 196.39-31.84L196.39-31.84Q198.25-32.84 200.25-33.58 202.25-34.33 204.29-34.83 206.33-35.33 208.36-35.58 210.38-35.84 212.29-35.84L212.29-35.84Q214.95-35.84 217.3-35.28 219.66-34.72 221.41-33.58 223.15-32.45 224.16-30.73 225.18-29 225.18-26.68L225.18-26.68Q225.18-25.68 224.74-24.76 224.3-23.83 223.6-22.99 222.91-22.14 222.05-21.42 221.2-20.7 220.37-20.12L220.37-20.12Q221.54-19.26 222.48-18.57 223.42-17.87 224.08-17.11 224.74-16.36 225.08-15.42 225.42-14.48 225.42-13.13L225.42-13.13Q225.42-11.08 224.7-9.22 223.98-7.35 222.72-5.75 221.47-4.15 219.75-2.86 218.02-1.56 216.01-0.65 214 0.27 211.76 0.77 209.53 1.27 207.26 1.27L207.26 1.27Q206.43 1.27 205.04 1.1 203.64 0.93 202.12 0.7 200.59 0.46 199.12 0.18 197.64-0.1 196.64-0.32ZM207.89-27.1L207.89-27.1Q207.43-24.22 207.11-21.25 206.79-18.29 206.56-15.49 206.33-12.7 206.16-10.18 205.99-7.67 205.82-5.69L205.82-5.69Q206.79-5.69 207.93-5.8 209.06-5.91 210.19-6.18 211.31-6.45 212.37-6.87 213.43-7.3 214.24-7.93 215.05-8.57 215.53-9.44 216.02-10.3 216.02-11.43L216.02-11.43Q216.02-12.11 215.61-12.63 215.19-13.16 214.55-13.54 213.9-13.92 213.12-14.17 212.34-14.43 211.59-14.59 210.85-14.75 210.22-14.83 209.6-14.92 209.28-14.97L209.28-14.97Q208.94-15.01 208.84-15.21 208.75-15.41 208.75-15.7L208.75-15.7Q208.75-16.02 209.14-16.65 209.53-17.29 210.21-18.38L210.21-18.38 211.24-20.02Q211.9-20.26 212.67-20.63 213.43-21 214.09-21.47 214.75-21.95 215.19-22.55 215.63-23.14 215.63-23.85L215.63-23.85Q215.63-25.85 214.77-26.92 213.9-27.98 212.26-27.98L212.26-27.98Q210.41-27.98 207.89-27.1ZM242.88-27.25L242.88-27.25Q245.19-27.25 247.09-26.38 248.98-25.51 250.33-24.13 251.69-22.75 252.42-21.04 253.15-19.34 253.15-17.63L253.15-17.63Q253.15-16.11 252.23-14.59 251.3-13.06 249.63-11.84 247.95-10.62 245.61-9.86 243.27-9.11 240.46-9.11L240.46-9.11Q238.99-9.11 237.38-9.4L237.38-9.4Q237.48-8.35 237.99-7.59 238.51-6.84 239.29-6.35 240.07-5.86 241.06-5.63 242.05-5.4 243.1-5.4L243.1-5.4Q244.27-5.4 245.35-5.6 246.44-5.81 247.44-6.15 248.44-6.49 249.37-6.91 250.3-7.32 251.13-7.74L251.13-7.74Q251.35-7.79 251.51-7.82 251.66-7.86 251.81-7.86L251.81-7.86Q251.81-7.86 251.8-7.47 251.79-7.08 251.79-6.37 251.79-5.66 251.77-4.66 251.76-3.66 251.74-2.44L251.74-2.44Q251.81-2.32 251.84-2.2 251.86-2.08 251.86-2L251.86-2Q251.86-1.71 251.32-1.37 250.79-1.03 249.92-0.66 249.05-0.29 247.94 0.05 246.83 0.39 245.68 0.67 244.54 0.95 243.46 1.11 242.39 1.27 241.58 1.27L241.58 1.27Q238.94 1.27 236.47 0.35 233.99-0.56 232.07-2.27 230.16-3.98 229.01-6.42 227.86-8.86 227.86-11.91L227.86-11.91Q227.86-15.11 228.96-17.91 230.06-20.7 232.05-22.78 234.04-24.85 236.8-26.05 239.56-27.25 242.88-27.25ZM242.58-20.75L242.58-20.75Q241.58-20.75 240.74-20.32 239.9-19.9 239.2-19.1 238.51-18.31 237.99-17.2 237.48-16.09 237.16-14.75L237.16-14.75Q239.68-15.19 241.34-15.67 243-16.16 244-16.66 245-17.16 245.41-17.66 245.83-18.16 245.83-18.63L245.83-18.63Q245.83-19.07 245.5-19.46 245.17-19.85 244.68-20.14 244.19-20.43 243.62-20.59 243.05-20.75 242.58-20.75ZM283.64-27.66L281.13-4.91Q281.11-4.81 281.11-4.72 281.11-4.64 281.11-4.57L281.11-4.57Q281.11-3.96 281.3-3.55 281.5-3.15 281.73-2.89 281.96-2.64 282.16-2.48 282.35-2.32 282.35-2.2L282.35-2.2Q282.35-1.86 281.62-1.56L281.62-1.56 275.05 1.25Q275.03 1.27 274.88 1.27L274.88 1.27Q274.68 1.27 274.49 0.93 274.29 0.59 274.11 0.06 273.93-0.46 273.77-1.06 273.61-1.66 273.49-2.17L273.49-2.17Q271.95-0.39 270.17 0.44 268.39 1.27 266.63 1.27L266.63 1.27Q264.58 1.27 262.62 0.37 260.67-0.54 259.16-2.21 257.64-3.88 256.73-6.25 255.81-8.62 255.81-11.57L255.81-11.57Q255.81-15.06 256.83-17.94 257.84-20.83 259.57-22.9 261.31-24.98 263.61-26.11 265.92-27.25 268.51-27.25L268.51-27.25Q270.34-27.25 271.97-26.5 273.61-25.76 275.08-24.58L275.08-24.58Q275.22-25.32 275.25-25.76 275.27-26.2 275.36-26.44 275.44-26.68 275.69-26.77 275.93-26.86 276.49-26.9L276.49-26.9Q278.25-27.15 279.99-27.36 281.74-27.56 283.64-27.66L283.64-27.66ZM272.8-6.88L273.83-14.11Q274.07-15.5 274.16-16.74 274.25-17.97 274.29-18.99L274.29-18.99Q273.9-19.29 273.45-19.6 273-19.92 272.48-20.2 271.95-20.48 271.38-20.65 270.8-20.83 270.17-20.83L270.17-20.83Q268.85-20.83 267.96-19.97 267.07-19.12 266.52-17.87 265.97-16.63 265.74-15.23 265.5-13.84 265.5-12.77L265.5-12.77Q265.5-8.91 266.52-7.12 267.53-5.32 269.34-5.32L269.34-5.32Q270.07-5.32 270.97-5.74 271.88-6.15 272.8-6.88L272.8-6.88ZM304.37-18.82L299.83-18.82Q299.49-16.26 299.18-13.71 298.88-11.16 298.8-8.94L298.8-8.94Q298.8-7.98 298.95-7.35 299.1-6.71 299.38-6.35 299.66-5.98 300.05-5.82 300.44-5.66 300.93-5.66L300.93-5.66Q301.71-5.66 302.64-5.9 303.56-6.13 304.49-6.49L304.49-6.49Q304.78-6.62 304.99-6.68 305.2-6.74 305.35-6.74L305.35-6.74Q305.59-6.74 305.68-6.52 305.76-6.3 305.85-5.75 305.93-5.2 306.1-4.27 306.27-3.34 306.66-1.93L306.66-1.93Q306.69-1.81 306.7-1.72 306.71-1.64 306.71-1.56L306.71-1.56Q306.71-1.22 306.46-1.07 306.2-0.93 305.61-0.73L305.61-0.73Q304.61-0.39 303.5-0.04 302.39 0.32 301.31 0.61 300.22 0.9 299.22 1.09 298.22 1.27 297.46 1.27L297.46 1.27Q293.38 1.27 291.52-0.76 289.65-2.78 289.65-6.93L289.65-6.93Q289.65-7.64 289.7-8.39 289.75-9.13 289.82-9.94L289.82-9.94Q290.06-12.38 290.25-14.56 290.43-16.75 290.62-18.75L290.62-18.75 288.06-18.75Q286.74-18.75 286.16-18.86 285.57-18.97 285.57-19.31L285.57-19.31Q285.57-19.41 285.81-19.84 286.06-20.26 286.44-20.86 286.82-21.46 287.26-22.14 287.69-22.83 288.1-23.43 288.5-24.02 288.79-24.46 289.09-24.9 289.16-25L289.16-25 290.89-25Q291.11-26.86 291.25-28.11 291.38-29.37 291.47-30.2 291.55-31.03 291.63-31.48 291.7-31.93 291.78-32.15 291.87-32.37 292-32.43 292.14-32.5 292.36-32.54L292.36-32.54Q293.46-32.76 294.48-32.95 295.51-33.13 296.53-33.33 297.56-33.52 298.62-33.78 299.68-34.03 300.83-34.38L300.83-34.38Q300.9-34.38 300.93-34.39 300.95-34.4 301.02-34.4L301.02-34.4Q301.32-34.4 301.32-34.2L301.32-34.2 301.32-34.16Q301.2-32.81 300.94-30.42 300.68-28.03 300.37-25L300.37-25 306.91-25Q307.1-25 307.29-24.87 307.47-24.73 307.47-24.41L307.47-24.41Q307.47-24.29 307.18-23.54 306.88-22.78 306.35-21.56L306.35-21.56 305.47-19.58Q305.3-19.21 305.11-19.04 304.93-18.87 304.37-18.82L304.37-18.82Z" opacity="1" transform="matrix(1,0,0,1,0,0)" fill="#ffffff" class="wordmark-text-0" data-fill-palette-color="quaternary" id="text-0"></path></svg></g></svg></g><g transform="matrix(1,0,0,1,0,42.473040257327014)"><svg viewBox="0 0 213.1584412271571 21.23521440350601" height="21.23521440350601" width="213.1584412271571"><g transform="matrix(1,0,0,1,0,0)"><svg width="213.1584412271571" viewBox="-12.5 -31.25 319.71 31.85" height="21.23521440350601" data-palette-color="#ffffff"><path d="M27.2-7.55L27.2-7.55 21-7.55 19.7 0 10.2 0 15.7-31.25 30.7-31.25Q39.2-31.25 39.2-23.35L39.2-23.35Q39.2-19.6 38.15-16.57 37.1-13.55 35.83-11.78 34.55-10 32.33-8.78 30.1-7.55 27.2-7.55ZM22.4-15.55L24.6-15.55Q26.3-15.55 27.18-15.93 28.05-16.3 28.3-17.65L28.3-17.65Q28.95-21.35 28.95-21.7L28.95-21.7Q28.95-22.65 28.2-22.95 27.45-23.25 25.95-23.25L25.95-23.25 23.75-23.25 22.4-15.55ZM9.1-2.4L8.7-0.15-12.5-2.4 9.1-2.4ZM10.8-12.05L10.4-9.8-10.8-12.05 10.8-12.05ZM12.45-21.65L12.05-19.4-9.1-21.65 12.45-21.65ZM13.3-26.45L12.9-24.2-8.25-26.45 13.3-26.45ZM9.95-7.25L9.55-5-11.65-7.25 9.95-7.25ZM14.15-31.25L13.75-29-7.4-31.25 14.15-31.25ZM11.6-16.85L11.2-14.6-9.95-16.85 11.6-16.85ZM56.26-26.45L68.96-26.45Q76.26-26.45 76.26-19.85L76.26-19.85Q76.26-16.85 75.06-13.63 73.86-10.4 71.01-8.8L71.01-8.8 73.86 0 64.51 0 62.61-7.7 61.41-7.7 60.06 0 51.66 0 56.26-26.45ZM66.81-16.05L67.11-17.8Q67.11-17.85 67.16-18.3L67.16-18.3Q67.16-19.15 64.51-19.15L64.51-19.15 63.41-19.15 62.61-14.55 64.21-14.55Q66.51-14.55 66.81-16.05L66.81-16.05ZM50.41-2.4L50.01-0.15 28.81-2.4 50.41-2.4ZM52.11-12.05L51.71-9.8 30.51-12.05 52.11-12.05ZM52.96-16.85L52.56-14.6 31.36-16.85 52.96-16.85ZM53.81-21.65L53.41-19.4 32.21-21.65 53.81-21.65ZM54.61-26.45L54.26-24.2 33.06-26.45 54.61-26.45ZM51.26-7.25L50.86-5 29.66-7.25 51.26-7.25ZM105.97-26.95L105.97-26.95Q111.37-26.95 113.67-24.88 115.97-22.8 115.97-18.4L115.97-18.4Q115.97-16.25 115.42-13.2L115.42-13.2Q114.17-6 111.02-2.7 107.87 0.6 101.12 0.6L101.12 0.6Q95.82 0.6 93.57-1.48 91.32-3.55 91.32-7.9L91.32-7.9Q91.32-10.15 91.87-13.2L91.87-13.2Q93.12-20.4 96.22-23.68 99.32-26.95 105.97-26.95ZM99.62-7L102.57-7Q104.02-7 104.74-7.35 105.47-7.7 105.72-8.9L105.72-8.9 107.62-19.35 104.57-19.35Q103.17-19.35 102.39-19 101.62-18.65 101.47-17.5L101.47-17.5 99.62-7ZM70.17-12.05L90.12-12.05Q89.92-10.5 89.87-9.95L89.87-9.95 70.17-12.05ZM71.07-16.85L91.07-16.85 90.62-14.75 71.07-16.85ZM70.37-7.25L89.82-7.25Q89.82-6.45 90.02-5.15L90.02-5.15 70.37-7.25ZM73.07-21.65L92.82-21.65Q92.22-20.35 91.97-19.65L91.97-19.65 73.07-21.65ZM74.72-2.4L90.87-2.4Q91.47-1.2 92.17-0.55L92.17-0.55 74.72-2.4ZM79.77-26.45L97.17-26.45Q95.97-25.75 95.12-24.8L95.12-24.8 79.77-26.45ZM136.28-26.45L147.53-26.45Q152.98-26.45 155.33-24.5 157.68-22.55 157.68-18.25L157.68-18.25Q157.68-16.2 157.13-13.2L157.13-13.2Q155.88-6.1 152.8-3.05 149.73 0 142.88 0L142.88 0 131.68 0 136.28-26.45ZM146.33-19.15L146.33-19.15 143.43-19.15 141.33-7.15 144.23-7.15Q145.68-7.15 146.45-7.53 147.23-7.9 147.43-9.05L147.43-9.05 148.88-17.3Q148.93-17.5 148.93-18.1L148.93-18.1Q148.93-19.15 146.33-19.15ZM130.43-2.4L130.03-0.15 108.83-2.4 130.43-2.4ZM132.13-12.05L131.73-9.8 110.53-12.05 132.13-12.05ZM132.98-16.85L132.58-14.6 111.38-16.85 132.98-16.85ZM133.83-21.65L133.43-19.4 112.23-21.65 133.83-21.65ZM134.63-26.45L134.28-24.2 113.08-26.45 134.63-26.45ZM131.28-7.25L130.88-5 109.68-7.25 131.28-7.25ZM173.88-12.05L173.48-9.8 152.28-12.05 173.88-12.05ZM174.73-16.85L174.33-14.6 153.13-16.85 174.73-16.85ZM175.58-21.65L175.18-19.4 153.98-21.65 175.58-21.65ZM176.38-26.45L176.03-24.2 154.83-26.45 176.38-26.45ZM152.13-7.25L173.28-7.25 173.28-6.25Q173.28-5.4 173.33-5L173.33-5 152.13-7.25ZM175.23-0.15L175.23-0.15 154.03-2.4 173.78-2.4Q174.33-1 175.23-0.15ZM182.98-7L185.48-7Q186.83-7 187.36-7.33 187.88-7.65 188.08-8.9L188.08-8.9 191.23-26.45 199.63-26.45 197.03-11.55Q195.83-4.55 193.16-1.98 190.48 0.6 184.03 0.6L184.03 0.6Q178.88 0.6 176.83-0.93 174.78-2.45 174.78-6.25L174.78-6.25Q174.78-8.35 175.33-11.55L175.33-11.55 177.98-26.45 186.38-26.45 182.98-7ZM230.34-8.05L229.54-0.55Q226.84 0.6 222.04 0.6 217.24 0.6 214.97-1.43 212.69-3.45 212.69-7.8L212.69-7.8Q212.69-9.75 213.29-13.2L213.29-13.2Q214.54-20.45 217.62-23.7 220.69-26.95 227.44-26.95L227.44-26.95Q232.29-26.95 234.09-25.85L234.09-25.85 231.54-18.9Q229.04-19.6 226.99-19.6 224.94-19.6 224.12-19.25 223.29-18.9 223.09-17.9L223.09-17.9 221.14-7.2Q222.19-6.95 224.77-6.95 227.34-6.95 230.34-8.05L230.34-8.05ZM191.59-12.05L211.54-12.05Q211.34-10.5 211.29-9.95L211.29-9.95 191.59-12.05ZM192.49-16.85L212.49-16.85 212.04-14.75 192.49-16.85ZM191.79-7.25L211.24-7.25Q211.24-6.45 211.44-5.15L211.44-5.15 191.79-7.25ZM194.49-21.65L214.24-21.65Q213.64-20.35 213.39-19.65L213.39-19.65 194.49-21.65ZM196.14-2.4L212.29-2.4Q212.89-1.2 213.59-0.55L213.59-0.55 196.14-2.4ZM201.19-26.45L218.59-26.45Q217.39-25.75 216.54-24.8L216.54-24.8 201.19-26.45ZM265.4-15.55L264.55-10.75 257.1-10.75 256.5-7.35 265.75-7.35 264.45 0 246.8 0 251.4-26.45 269-26.45 266.65-18.95 258.5-18.95 257.9-15.55 265.4-15.55ZM245.55-2.4L245.15-0.15 223.95-2.4 245.55-2.4ZM247.25-12.05L246.85-9.8 225.65-12.05 247.25-12.05ZM248.1-16.85L247.7-14.6 226.5-16.85 248.1-16.85ZM248.95-21.65L248.55-19.4 227.35-21.65 248.95-21.65ZM249.75-26.45L249.4-24.2 228.2-26.45 249.75-26.45ZM246.4-7.25L246-5 224.8-7.25 246.4-7.25ZM287.21-26.45L299.91-26.45Q307.21-26.45 307.21-19.85L307.21-19.85Q307.21-16.85 306.01-13.63 304.81-10.4 301.96-8.8L301.96-8.8 304.81 0 295.46 0 293.56-7.7 292.36-7.7 291.01 0 282.61 0 287.21-26.45ZM297.76-16.05L298.06-17.8Q298.06-17.85 298.11-18.3L298.11-18.3Q298.11-19.15 295.46-19.15L295.46-19.15 294.36-19.15 293.56-14.55 295.16-14.55Q297.46-14.55 297.76-16.05L297.76-16.05ZM281.36-2.4L280.96-0.15 259.76-2.4 281.36-2.4ZM283.06-12.05L282.66-9.8 261.46-12.05 283.06-12.05ZM283.91-16.85L283.51-14.6 262.31-16.85 283.91-16.85ZM284.76-21.65L284.36-19.4 263.16-21.65 284.76-21.65ZM285.56-26.45L285.21-24.2 264.01-26.45 285.56-26.45ZM282.21-7.25L281.81-5 260.61-7.25 282.21-7.25Z" opacity="1" transform="matrix(1,0,0,1,0,0)" fill="#ffffff" class="slogan-text-1" data-fill-palette-color="quaternary" id="text-1"></path></svg></g></svg></g></svg></g></svg></g><g><svg viewBox="0 0 227.4467451296661 157.60020621487553" height="157.60020621487553" width="227.4467451296661"><g><svg xmlns="http://www.w3.org/2000/svg" xmlns:xlink="http://www.w3.org/1999/xlink" version="1.1" x="0" y="0" viewBox="5.0520000000000005 11.608 75.83376289044075 52.54600000000001" enable-background="new 0 0 90 90" xml:space="preserve" height="157.60020621487553" width="227.4467451296661" class="icon-icon-0" data-fill-palette-color="quaternary" id="icon-0"><path d="M80.871 50.636V25.129c0-0.582 0.004-1.154 0.007-1.715C80.907 18.899 80.932 15 78.944 13c-0.93-0.937-2.212-1.392-3.919-1.392H11.967c-6.386 0-6.915 6.396-6.915 13.521v25.506c0 7.124 0.529 13.519 6.915 13.519h63.059c1.707 0 2.989-0.455 3.92-1.392 1.986-2 1.962-5.898 1.933-10.412C80.875 51.79 80.871 51.217 80.871 50.636zM79.342 52.359c0.027 3.96 0.052 7.38-1.259 8.988-0.635 0.778-1.635 1.157-3.058 1.157H11.967c-4.124 0-5.381-2.773-5.381-11.869V25.129c0-9.096 1.257-11.869 5.381-11.869h63.059c1.424 0 2.424 0.378 3.058 1.155 1.311 1.61 1.286 5.028 1.259 8.989l-0.004 27.231L79.342 52.359z" fill="#ffffff" data-fill-palette-color="quaternary"></path><path d="M22.241 33.926h-3.065V17.092c0-0.272-0.283-0.495-0.63-0.495-0.348 0-0.63 0.222-0.63 0.495v16.834h-3.066c-0.481 0-0.858 0.528-0.872 1.209-0.004 0.013-0.009 0.025-0.009 0.038 0 0.013 0.005 0.026 0.009 0.038 0.014 0.681 0.391 1.209 0.872 1.209h3.066v22.25c0 0.273 0.282 0.495 0.63 0.495 0.348 0 0.63-0.221 0.63-0.495V36.42h3.065c0.489 0 0.873-0.547 0.873-1.247S22.73 33.926 22.241 33.926zM18.388 17.157c0-0.066 0.07-0.121 0.157-0.121 0.086 0 0.157 0.054 0.157 0.121v16.769h-0.314V17.157zM18.703 58.547c0 0.066-0.071 0.121-0.157 0.121-0.087 0-0.157-0.054-0.157-0.121V36.42h0.314V58.547zM34.455 36.634h-3.066V17.092c0-0.272-0.283-0.495-0.63-0.495-0.348 0-0.63 0.222-0.63 0.495v19.542h-3.066c-0.481 0-0.858 0.528-0.872 1.209-0.004 0.013-0.009 0.025-0.009 0.038 0 0.013 0.005 0.026 0.009 0.038 0.014 0.682 0.391 1.209 0.872 1.209h3.066V58.67c0 0.273 0.282 0.495 0.63 0.495 0.348 0 0.63-0.221 0.63-0.495V39.128h3.066c0.489 0 0.873-0.548 0.873-1.247C35.328 37.182 34.944 36.634 34.455 36.634zM30.602 17.157c0-0.066 0.07-0.121 0.157-0.121 0.086 0 0.157 0.054 0.157 0.121v19.477h-0.314V17.157zM30.916 58.547c0 0.066-0.071 0.121-0.157 0.121-0.087 0-0.157-0.054-0.157-0.121V39.128h0.314V58.547zM46.668 27.656h-3.066V17.092c0-0.272-0.283-0.495-0.63-0.495-0.348 0-0.631 0.222-0.631 0.495v10.563h-3.066c-0.481 0-0.858 0.528-0.872 1.209-0.004 0.013-0.01 0.024-0.01 0.038 0 0.013 0.005 0.026 0.01 0.038 0.014 0.682 0.391 1.209 0.872 1.209h3.066V58.67c0 0.273 0.283 0.495 0.631 0.495 0.347 0 0.63-0.221 0.63-0.495V30.149h3.066c0.489 0 0.873-0.547 0.873-1.246C47.542 28.204 47.157 27.656 46.668 27.656zM42.815 17.157c0-0.066 0.07-0.121 0.158-0.121 0.086 0 0.157 0.054 0.157 0.121v10.499h-0.314V17.157zM43.129 58.547c0 0.066-0.07 0.121-0.157 0.121-0.088 0-0.158-0.054-0.158-0.121V30.149h0.314V58.547zM58.882 22.727h-3.066v-5.635c0-0.272-0.282-0.495-0.63-0.495-0.348 0-0.631 0.222-0.631 0.495v5.635h-3.066c-0.48 0-0.858 0.528-0.872 1.209-0.004 0.013-0.009 0.025-0.009 0.038 0 0.013 0.005 0.026 0.009 0.038 0.014 0.681 0.391 1.209 0.872 1.209h3.066V58.67c0 0.273 0.283 0.495 0.631 0.495 0.348 0 0.63-0.221 0.63-0.495V25.221h3.066c0.489 0 0.873-0.548 0.873-1.247C59.755 23.275 59.371 22.727 58.882 22.727zM55.028 17.157c0-0.066 0.07-0.121 0.158-0.121 0.086 0 0.157 0.054 0.157 0.121v5.57h-0.314V17.157zM55.343 58.547c0 0.066-0.07 0.121-0.157 0.121-0.088 0-0.158-0.054-0.158-0.121V25.221h0.314V58.547zM71.095 21.48h-3.066v-4.388c0-0.272-0.282-0.495-0.63-0.495-0.348 0-0.631 0.222-0.631 0.495v4.388h-3.065c-0.481 0-0.858 0.528-0.872 1.209-0.004 0.013-0.009 0.025-0.009 0.038 0 0.013 0.005 0.026 0.009 0.038 0.014 0.681 0.391 1.209 0.872 1.209h3.065V58.67c0 0.273 0.283 0.495 0.631 0.495 0.348 0 0.63-0.221 0.63-0.495V23.974h3.066c0.489 0 0.873-0.548 0.873-1.247C71.968 22.028 71.584 21.48 71.095 21.48zM67.242 17.157c0-0.066 0.07-0.121 0.158-0.121 0.086 0 0.157 0.054 0.157 0.121v4.323h-0.314V17.157zM67.556 58.547c0 0.066-0.07 0.121-0.157 0.121-0.087 0-0.158-0.054-0.158-0.121V23.974h0.314V58.547z" fill="#ffffff" data-fill-palette-color="quaternary"></path><path d="M6.273 37.464c-0.163 0-0.293 0.187-0.293 0.417l0 0c-0.001 0.231 0.131 0.416 0.293 0.417l3.72-0.001c0.163 0.001 0.294-0.187 0.295-0.415l0 0c0-0.23-0.132-0.417-0.293-0.417L6.273 37.464z" fill="#ffffff" data-fill-palette-color="quaternary"></path><path d="M75.76 37.464c-0.163 0-0.293 0.187-0.293 0.417l0 0c-0.001 0.231 0.131 0.416 0.293 0.417l3.72-0.001c0.163 0.001 0.294-0.187 0.295-0.415l0 0c0-0.23-0.132-0.417-0.293-0.417L75.76 37.464z" fill="#ffffff" data-fill-palette-color="quaternary"></path></svg></g></svg></g><g></g></svg></g></svg></g></svg></g></svg></g><defs></defs></svg><rect width="333.90454557049503" height="333.90454557049503" fill="none" stroke="none" visibility="hidden"></rect></g></svg></g></svg>